<?xml version="1.0" encoding="utf-8"?>
<!-- Generator: Adobe Illustrator 19.0.0, SVG Export Plug-In . SVG Version: 6.00 Build 0)  -->
<svg version="1.1" id="Capa_1" xmlns="http://www.w3.org/2000/svg" xmlns:xlink="http://www.w3.org/1999/xlink" x="0px" y="0px"
	 viewBox="0 0 200 116.5" style="enable-background:new 0 0 200 116.5;" xml:space="preserve">
<style type="text/css">
	.st0{fill:#FFFFFF;}
</style>
<path id="XMLID_135_" class="st0" d="M101.5,27.4C101.5,27.4,101.5,27.4,101.5,27.4C101.5,27.4,101.5,27.4,101.5,27.4
	C101.5,27.4,101.5,27.4,101.5,27.4z M105.4,24.1L105.4,24.1C105.5,24.1,105.5,24.1,105.4,24.1C105.4,24.1,105.4,24.1,105.4,24.1z
	 M101.5,27.4C101.5,27.4,101.5,27.4,101.5,27.4C101.5,27.4,101.5,27.4,101.5,27.4C101.5,27.4,101.5,27.4,101.5,27.4z M105.4,24.1
	L105.4,24.1C105.5,24.1,105.5,24.1,105.4,24.1C105.4,24.1,105.4,24.1,105.4,24.1z M93.6,34.5c0.6,2.3,1.1,4.5,1.3,6.9
	C95.4,38.9,94.9,36.6,93.6,34.5z M96.4,34.8c0.3,1.1,0.6,2.3,0.8,3.4c0.2,1.2,0.4,2.3,0.5,3.5C98.2,39.2,97.7,36.9,96.4,34.8z
	 M100.6,35c-0.3,2.3-0.4,4.5,0.2,6.7C101.3,39.5,101.1,37.3,100.6,35z M101.5,27.4C101.5,27.4,101.5,27.4,101.5,27.4
	C101.5,27.4,101.5,27.4,101.5,27.4C101.5,27.4,101.5,27.4,101.5,27.4z M104.1,41.7c0.2-2.3,0.6-4.6,1.3-6.9
	C104.1,36.9,103.6,39.2,104.1,41.7z M105.4,24.1L105.4,24.1C105.5,24.1,105.5,24.1,105.4,24.1C105.4,24.1,105.4,24.1,105.4,24.1z
	 M107.6,34.7c-1.2,2.1-1.6,4.3-1.1,6.6c0.1-0.6,0.1-1.1,0.2-1.7c0.2-1.6,0.6-3.3,1-4.8C107.7,34.8,107.8,34.7,107.6,34.7z
	 M107.6,34.7c-1.2,2.1-1.6,4.3-1.1,6.6c0.1-0.6,0.1-1.1,0.2-1.7c0.2-1.6,0.6-3.3,1-4.8C107.7,34.8,107.8,34.7,107.6,34.7z
	 M104.1,41.7c0.2-2.3,0.6-4.6,1.3-6.9C104.1,36.9,103.6,39.2,104.1,41.7z M100.6,35c-0.3,2.3-0.4,4.5,0.2,6.7
	C101.3,39.5,101.1,37.3,100.6,35z M96.4,34.8c0.3,1.1,0.6,2.3,0.8,3.4c0.2,1.2,0.4,2.3,0.5,3.5C98.2,39.2,97.7,36.9,96.4,34.8z
	 M93.6,34.5c0.6,2.3,1.1,4.5,1.3,6.9C95.4,38.9,94.9,36.6,93.6,34.5z M101.5,27.4C101.5,27.4,101.5,27.4,101.5,27.4
	C101.5,27.4,101.5,27.4,101.5,27.4C101.5,27.4,101.5,27.4,101.5,27.4z M105.4,24.1L105.4,24.1C105.5,24.1,105.5,24.1,105.4,24.1
	C105.4,24.1,105.4,24.1,105.4,24.1z M83.6,58c-0.7,0.2-0.2,0.6-0.1,0.9c0,0,0,0.1,0,0.1c0.8,1,0.7-0.1,0.9-0.4
	C84.7,57.8,84,57.9,83.6,58z M84.9,53.5c-0.6-0.2-1.2,0.2-1.6,0.7c-0.4,0.5-0.6,1.1-0.6,1.9c-0.2,0.9,0.2,1.2,1.3,1
	c1.5-0.2,0.8-1.5,1.2-2.2C85.3,54.6,85.7,53.8,84.9,53.5z M93.6,34.5c0.6,2.3,1.1,4.5,1.3,6.9C95.4,38.9,94.9,36.6,93.6,34.5z
	 M96.4,34.8c0.3,1.1,0.6,2.3,0.8,3.4c0.2,1.2,0.4,2.3,0.5,3.5C98.2,39.2,97.7,36.9,96.4,34.8z M100.6,35c-0.3,2.3-0.4,4.5,0.2,6.7
	C101.3,39.5,101.1,37.3,100.6,35z M101.5,27.4C101.5,27.4,101.5,27.4,101.5,27.4C101.5,27.4,101.5,27.4,101.5,27.4
	C101.5,27.4,101.5,27.4,101.5,27.4z M104.1,41.7c0.2-2.3,0.6-4.6,1.3-6.9C104.1,36.9,103.6,39.2,104.1,41.7z M105.4,24.1L105.4,24.1
	C105.5,24.1,105.5,24.1,105.4,24.1C105.4,24.1,105.4,24.1,105.4,24.1z M107.6,34.7c-1.2,2.1-1.6,4.3-1.1,6.6
	c0.1-0.6,0.1-1.1,0.2-1.7c0.2-1.6,0.6-3.3,1-4.8C107.7,34.8,107.8,34.7,107.6,34.7z M107.6,34.7c-1.2,2.1-1.6,4.3-1.1,6.6
	c0.1-0.6,0.1-1.1,0.2-1.7c0.2-1.6,0.6-3.3,1-4.8C107.7,34.8,107.8,34.7,107.6,34.7z M104.1,41.7c0.2-2.3,0.6-4.6,1.3-6.9
	C104.1,36.9,103.6,39.2,104.1,41.7z M100.6,35c-0.3,2.3-0.4,4.5,0.2,6.7C101.3,39.5,101.1,37.3,100.6,35z M96.4,34.8
	c0.3,1.1,0.6,2.3,0.8,3.4c0.2,1.2,0.4,2.3,0.5,3.5C98.2,39.2,97.7,36.9,96.4,34.8z M93.6,34.5c0.6,2.3,1.1,4.5,1.3,6.9
	C95.4,38.9,94.9,36.6,93.6,34.5z M84.9,53.5c-0.6-0.2-1.2,0.2-1.6,0.7c-0.4,0.5-0.6,1.1-0.6,1.9c-0.2,0.9,0.2,1.2,1.3,1
	c1.5-0.2,0.8-1.5,1.2-2.2C85.3,54.6,85.7,53.8,84.9,53.5z M83.6,58c-0.7,0.2-0.2,0.6-0.1,0.9c0,0,0,0.1,0,0.1c0.8,1,0.7-0.1,0.9-0.4
	C84.7,57.8,84,57.9,83.6,58z M101.5,27.4C101.5,27.4,101.5,27.4,101.5,27.4C101.5,27.4,101.5,27.4,101.5,27.4
	C101.5,27.4,101.5,27.4,101.5,27.4z M105.4,24.1L105.4,24.1C105.5,24.1,105.5,24.1,105.4,24.1C105.4,24.1,105.4,24.1,105.4,24.1z
	 M83.6,58c-0.7,0.2-0.2,0.6-0.1,0.9c0,0,0,0.1,0,0.1c0.8,1,0.7-0.1,0.9-0.4C84.7,57.8,84,57.9,83.6,58z M84.9,53.5
	c-0.6-0.2-1.2,0.2-1.6,0.7c-0.4,0.5-0.6,1.1-0.6,1.9c-0.2,0.9,0.2,1.2,1.3,1c1.5-0.2,0.8-1.5,1.2-2.2C85.3,54.6,85.7,53.8,84.9,53.5
	z M93.6,34.5c0.6,2.3,1.1,4.5,1.3,6.9C95.4,38.9,94.9,36.6,93.6,34.5z M96.4,34.8c0.3,1.1,0.6,2.3,0.8,3.4c0.2,1.2,0.4,2.3,0.5,3.5
	C98.2,39.2,97.7,36.9,96.4,34.8z M100.6,35c-0.3,2.3-0.4,4.5,0.2,6.7C101.3,39.5,101.1,37.3,100.6,35z M101.5,27.4
	C101.5,27.4,101.5,27.4,101.5,27.4C101.5,27.4,101.5,27.4,101.5,27.4C101.5,27.4,101.5,27.4,101.5,27.4z M104.1,41.7
	c0.2-2.3,0.6-4.6,1.3-6.9C104.1,36.9,103.6,39.2,104.1,41.7z M105.4,24.1L105.4,24.1C105.5,24.1,105.5,24.1,105.4,24.1
	C105.4,24.1,105.4,24.1,105.4,24.1z M107.6,34.7c-1.2,2.1-1.6,4.3-1.1,6.6c0.1-0.6,0.1-1.1,0.2-1.7c0.2-1.6,0.6-3.3,1-4.8
	C107.7,34.8,107.8,34.7,107.6,34.7z M107.6,34.7c-1.2,2.1-1.6,4.3-1.1,6.6c0.1-0.6,0.1-1.1,0.2-1.7c0.2-1.6,0.6-3.3,1-4.8
	C107.7,34.8,107.8,34.7,107.6,34.7z M104.1,41.7c0.2-2.3,0.6-4.6,1.3-6.9C104.1,36.9,103.6,39.2,104.1,41.7z M100.8,41.8
	c0.5-2.3,0.3-4.5-0.2-6.7C100.3,37.3,100.3,39.5,100.8,41.8z M97.2,38.2c0.2,1.2,0.4,2.3,0.5,3.5c0.5-2.5,0-4.7-1.3-6.9
	C96.7,35.9,97,37.1,97.2,38.2z M94.9,41.4c0.5-2.5,0-4.7-1.3-6.9C94.2,36.7,94.7,39,94.9,41.4z M84.9,53.5c-0.6-0.2-1.2,0.2-1.6,0.7
	c-0.4,0.5-0.6,1.1-0.6,1.9c-0.2,0.9,0.2,1.2,1.3,1c1.5-0.2,0.8-1.5,1.2-2.2C85.3,54.6,85.7,53.8,84.9,53.5z M83.6,58
	c-0.7,0.2-0.2,0.6-0.1,0.9c0,0,0,0.1,0,0.1c0.8,1,0.7-0.1,0.9-0.4C84.7,57.8,84,57.9,83.6,58z M101.5,27.4
	C101.5,27.4,101.5,27.4,101.5,27.4C101.5,27.4,101.5,27.4,101.5,27.4C101.5,27.4,101.5,27.4,101.5,27.4z M105.4,24.1L105.4,24.1
	C105.5,24.1,105.5,24.1,105.4,24.1C105.4,24.1,105.4,24.1,105.4,24.1z M100.3,3C46.3,3,2.6,28,2.6,58.8s43.8,55.7,97.7,55.7
	s97.7-25,97.7-55.7S154.2,3,100.3,3z M111.2,29.7c0,0.2-0.1,0.4-0.1,0.5c-0.6,1.7-2.8,1.9-4.3,2.2c-2.5,0.5-5.1,0.7-7.7,0.6
	c-0.1,0-0.3,0-0.4,0c1-0.1,1.9-0.3,2.9-0.5c3-0.7,6.2-1.9,8.7-3.9c0.3-0.2,0.7-0.7,1-0.7C111.4,27.9,111.2,29.5,111.2,29.7z
	 M95,19.9c0.2-0.7,0.7-1.2,1.3-1.6c0.7-0.4,1.6-0.5,2.3-1c0.6-0.4,0.9-1.1,0.9-1.9c0-0.5-0.1-1-0.3-1.4c-0.1-0.2-0.8-1.2-0.5-1
	c1.7,0.5,3.2,1.4,4.6,2.6c0.8,0.7,1.6,1.4,2,2.4c0.7,1.4,0.1,2.6-1.4,3c-0.6,0.2-1.2,0.2-1.7,0.3c-2,0.4-3.9,0.5-5.9,0.6
	c-0.2,0-0.5,0-0.7,0C94.9,21.6,94.8,20.5,95,19.9z M92.7,23.7c0.3-0.2,0.6-0.4,0.9-0.6c1.1-0.5,2.2-0.5,3.4-0.6
	c1.3-0.1,2.6-0.3,3.9-0.4c1.5-0.1,3-0.4,4.4-0.9c0.4-0.1,0.7-0.3,1-0.4c0.3-0.1,0.7-0.5,0.9-0.5c0.7-0.1,1.2,0.5,1.4,1.2
	c0.7,2.2-1.9,2.6-3.4,3c-0.4,0.1-0.9,0.2-1.4,0.2c-1.7,0.2-3.3,0.3-5,0.5c-1.7,0.2-3.4,0.3-5,0.7c-0.4,0.1-0.8,0.2-1.2,0.4
	c-0.2,0.1-0.3,0-0.3-0.1C91.7,25.4,91.9,24.4,92.7,23.7z M89.4,29.6c0.2-1.1,1-1.7,2-2c0.8-0.3,1.7-0.3,2.5-0.4
	c2.7-0.3,5.5-0.5,8.2-0.9c2.1-0.4,4.5-0.8,6.2-2.3c0.8-0.7,1.7,0.1,2.3,0.8c0.3,0.4,0.5,0.9,0.5,1.3c0,0.3,0,0.5-0.2,0.8
	c-1.4,2.3-4.5,3.2-6.9,3.9c-2.2,0.7-4.5,1.2-6.8,1.5c-2.1,0.3-4.2,0.3-6.2-0.2c-0.4-0.1-0.8-0.3-1-0.6
	C89.4,31.1,89.3,30.3,89.4,29.6z M46.2,56.4c-0.5,0.3-0.8,0-1-0.4c-0.3-0.7-0.3-1.4-0.4-2.1c-0.3-4.1-1.8-5.2-5.8-4.2
	c-2,0.5-3.8,1.5-4.9,3.3c-1.2,1.8-0.9,2.5,1.1,3.2c0.7,0.2,1.4,0.4,2.1,0.7c6.3,2.4,9.1,7.4,7.9,14.1c-1.5,8.8-10.5,14.1-18.9,11.1
	c-4.7-1.7-6.8-5.6-5.9-10.8c1.1-6,5.6-9.5,11.4-8.9c2.9,0.3,5,2.2,5.6,5.1c0.2,1.2,1.1,2.4,0,3.7c-0.6-0.3-0.7-0.8-0.7-1.3
	c0.3-4.6-4-7.5-8.1-5.6c-3.1,1.4-5,5.5-4.4,9.9c0.5,3.9,2.7,6.5,6.2,7.2c2.3,0.5,4.3-0.2,6.2-1.5c4.4-3.1,6.6-9.8,5.1-14.9
	c-0.9-3.3-3-5.4-6.4-6.2c-1.3-0.3-2.6-0.6-3.8-1.4c-1.7-1.2-2-2.8-0.9-4.5c2.2-3.4,8.6-5.5,12.5-4.3c1.4,0.4,1.9,1.5,2.3,2.7
	c0.5,1.4,0.3,2.9,1.1,4.2C46.8,55.9,46.6,56.2,46.2,56.4z M59.3,73.7c-1.1,1.1-2.5,1.6-4,1.1c-1.6-0.5-2.1-1.9-2-3.5
	c0-0.2,0-0.4,0-0.8c-1.1,1.3-1.9,2.3-2.8,3.4c-0.7,0.8-1.4,1.4-2.6,0.7c-1-0.6-1.2-1.5-0.9-2.6c0.4-1.8,0.9-3.6,1.2-5.5
	c0.2-1.2,0.6-2.4-0.2-3.6c-0.4-0.6,0.1-0.8,0.6-0.8c1.1,0,1.9,0.5,2.3,1.6c0.6,1.4,0.5,2.8,0.2,4.2c-0.4,1.9-0.8,3.8-1.3,5.8
	c0.4,0.1,0.5-0.3,0.6-0.4c1.7-2.5,3-5.1,3.8-8c0.2-0.7,0.6-1.4,0-2.2c-0.3-0.3-0.1-0.4,0.9-0.5c1.2,0.3,2.1,0.8,2.2,2.2
	c0.1,2-0.6,3.9-0.7,5.9c0,0.5-0.2,1-0.1,1.5c0.1,0.6-0.1,1.4,0.7,1.6c0.7,0.1,1.2-0.5,1.5-1.2c0.8-1.7,1.1-3.4,1.5-5.2
	c0.2-0.9,0.4-1.7,0.6-2.6c0.2-1.4,0.4-2.7,2.2-2.8c0.6-0.1,1,0,1.3,0.6c0.1,0.3,0.3,0.8-0.2,0.7c-1.8-0.2-1.5,1.2-1.7,2.1
	c-0.4,1.7-0.6,3.5-1.2,5.1C60.8,71.6,60.2,72.8,59.3,73.7z M98.1,61.7c-0.5-0.4,0.2-1.1,0.2-1.8c0.1-0.9-0.9-1.4-1.7-1.6
	c-2.5-0.7-5.2-0.8-7.8-0.4c-0.2,0-0.4,0.1-0.6,0.2c-0.1,0.1-0.2,0.3-0.3,0.5c-1.4,4.9-2.6,9.9-3.4,14.9c0.7,0.1,1.3-0.6,1.7-1.2
	c1.4-2.4,2.5-4.9,3.2-7.5c0.1-0.3,0.2-0.6,0.5-0.6c0.5,0,0.5,0.7,0.4,1.1c-0.9,2.9-1.8,5.9-3.8,8.2c-0.7,0.8-1.6,1.6-2.7,1.4
	c-1.3-0.2-2.1-1.7-2.2-3.1c-0.8,1.7-2.5,2.9-4.4,3.1c-1.9,0.2-3.8-0.5-5.1-1.9c-0.2-0.2-0.4-0.4-0.6-0.3c-0.1,0-0.2,0.1-0.3,0.2
	c-1.4,1.7-3.9,2.5-6,1.8c-1.1-0.3-2.1-1-2.6-2c-0.5-0.9-0.5-2.1-0.4-3.1c0.3-2.4,1.6-4.7,3.4-6.3c1-0.8,2.1-1.5,3.4-1.5
	c1.3,0,2.6,0.8,2.8,2.1c0.1,0.5,0,1-0.1,1.5c-0.5,1.9-1.9,3.6-3.6,4.5c-0.3,0.1-0.6,0.3-0.9,0.2c-0.3-0.1-0.6-0.4-0.4-0.7
	c0.1-0.2,0.4-0.3,0.6-0.4c1.9-0.6,3.4-2.5,3.4-4.6c0-0.6-0.3-1.4-0.9-1.4c-0.3,0-0.6,0.2-0.8,0.4c-2,1.8-3.4,4.3-3.6,7
	c-0.1,0.7-0.1,1.4,0.3,2c0.7,1.2,2.5,1.4,3.6,0.7c1.2-0.7,1.8-2,2.3-3.3c0.4-1.3,0.6-2.7,1.2-3.9c0.9-1.8,2.6-3.3,4.5-3.8
	c1.2-0.4,2.8-0.3,3.5,0.8c0.4,0.6,0.4,1.4,0.3,2.1c-0.4,2.1-1.8,4-3.8,4.9c-0.3,0.1-0.5,0.2-0.8,0.2c-0.3,0-0.5-0.3-0.5-0.6
	c0.1-0.3,0.4-0.4,0.7-0.5c1.9-0.6,3.4-2.5,3.3-4.6c0-0.6-0.3-1.4-0.9-1.3c-1.1,0-2.5,2.2-3,3.1c-0.8,1.2-1.2,2.6-1.4,4.1
	c-0.1,1.1,0,2.4,0.9,3c1.1,0.8,2.6,0.2,3.6-0.6c1.5-1.2,2.5-3,3.1-4.8c0.6-1.8,0.9-3.7,1.2-5.6c0.1-0.7,0.2-1.4,0.1-2.1
	c-0.3-1.3-1.6-2.3-2.9-2.3c-0.5,0-1,0.2-1.5,0.1c-0.5,0-1-0.2-1.3-0.7c1.3,0,2.5,0,3.8,0c-0.7,0,0.1-3,0.3-3.3
	c0.6-1,1.8-1.6,2.9-1.8c0.9-0.2,1.8,0,2.4,0.5c1.1,1,0.8,2.7,0.5,4.1c2.6-0.1,5.1-0.2,7.6,0.3c0.7,0.1,1.3,0.3,1.9,0.6
	c0.4,0.2,0.8,0.5,1.1,0.9C99.5,59.8,99.2,61.4,98.1,61.7z M98.2,43.7c-1.9-0.1-3.9-0.2-5.5-1.2c-0.4-0.2-0.2-1.3-0.3-1.7
	c-0.1-0.7-0.2-1.5-0.4-2.2c-0.3-1.4-0.8-2.8-1.5-4c-0.4-0.7-0.7-1.4-1.1-2.1c-0.1-0.1,0-0.1,0-0.1c0.1,0,0.2,0.1,0.2,0.1
	c2.5,0.9,5.2,1.2,7.9,1.4c4.7,0.3,9.9,0,14-2.4c0,0,0.1-0.1,0.2,0c0.1,0.1-0.6,1.4-0.6,1.5c-0.3,0.7-0.7,1.4-0.9,2.1
	c-0.5,1.5-0.9,3.1-1.1,4.7c-0.1,0.7,0.1,2.4-0.6,2.7c-1.5,0.7-3.3,0.9-4.9,1.1C101.8,43.7,100,43.8,98.2,43.7z M120.7,72.3
	c-1.7,2.7-3.8,5.1-6.5,6.8c-2.6,1.7-6.3,3.4-9.4,3c-1.3-0.2-2.3-0.8-3-1.9c-1.1-1.7-1.1-4.2,0.4-6.1c0.9-1.1,1.3-2.3,1.5-3.7
	c0.3-1.9,0.9-3.7,1.7-5.5c0.1-0.2,0.2-0.4,0.2-0.6c0.6-2.2,1.3-4.4,1.8-6.6c0.4-1.5,1.5-0.7,2.3-0.2c0.5,0.2,0.7,0.7,0.9,1.2
	c0.3,0.8,0.1,1.5-0.2,2.3c-0.9,2.8-1.9,5.6-2.8,8.5c0.2,0,0.3,0.1,0.5,0.1c0.5-0.1,1-0.8,1.3-0.2c0.4,0.7-0.5,0.9-1,1.1
	c-1.6,1-2.6,3.8-1.7,5.5c0.4,0.9-0.1,0.9-0.6,0.9c-1.2,0.1-2.2-0.7-2.8-2.2c-1.3,1.5-1.5,3-0.8,4.2c0.8,1.3,2.5,2.1,4.2,1.9
	c0.7-0.1,1.4-0.3,2.1-0.6c5.3-2.7,9-6.7,10.5-12.4c0.1-0.3,0.1-0.6,0.1-0.9c0.3-3-1-3.9-3.8-2.7c-0.2,0.1-0.4,0.1-0.6,0.2
	c-0.8,0.5-1.5,1.1-2.3,1.6c-0.2,0.1-0.5,0.4-0.8,0.1c-0.3-0.4-0.1-0.7,0.2-0.9c0.7-0.6,1.5-1.1,2.3-1.6c0.2-0.1,0.4-0.3,0.6-0.4
	l2.8-2.2c0.1-0.1,0.6-0.2,0.7-0.3c1.3-1.7,3.6-3.3,3.6-5.6v-1.6c0-0.2-0.4-0.4-0.5-0.6c-0.5-1-1.3-2-2.4-2.5
	c-2.4-0.5-4.6,0.4-6.6,1.4c-2.9,1.6-5.7,3.7-7.9,6.2c-1.2,1.5-4.9,6.4-2.2,8c0.4,0.2,0.8,0.9,0.3,1.3c-0.5,0.4-0.9-0.2-1.2-0.6
	c-2-2.4-0.1-5.9,1.3-8c1.9-2.8,4.2-5.2,7.1-7c2.9-1.8,6.3-3,9.7-2.7c1.8,0.2,3.9,0.7,4.8,2.5c0.5,0.9,0.5,2,0.3,3.1
	c-0.2,0.9-0.6,1.8-1,2.6c-0.6,1-1.3,1.9-2.2,2.7c-0.7,0.7-1.5,1.3-2.3,1.9c-0.4,0.3-0.4,0.6,0,0.8c0.9,0.4,1.7,0.6,2.4,1.4
	c0.6,0.8,0.8,1.8,0.8,2.8C122.4,68.9,121.7,70.7,120.7,72.3z M180.8,64.2c-0.8,2.5-1.7,4.9-3.4,7c-0.9,1.1-1.8,2.4-3.5,2.3
	c-0.7,0-0.6,0.6-0.8,1c-0.8,2.3-1.6,4.6-2.9,6.7c-0.6,1-1.2,1.9-2.1,2.7c-1.3,1.2-2.7,1.2-4.2,0.6c-1.3-0.6-1.6-1.8-1.7-3.1
	c0-1.8,0.3-3.4,1.5-4.8c0.7-0.9,1.6-1.7,2.8-0.9c0.8,0.5,0.7,2.2-0.4,3.6c0.1-0.9,0.2-1.5,0.3-2c0.1-0.4,0-0.9-0.3-1.1
	c-0.4-0.3-0.8,0-1.1,0.2c-1.5,1-2.5,4.7-1.7,6.3c0.6,1.2,2,1.5,3,0.5c0.3-0.3,0.5-0.5,0.7-0.9c2.1-3.4,3.1-7.2,3.7-11.2
	c-0.6,0.9-1.3,1.7-1.9,2.6c-0.6,0.8-1.4,1.3-2.4,1.1c-1.5-0.2-1.9-1.2-1.4-2.8c-0.8,0.9-1.3,1.6-1.9,2.2c-0.9,0.9-1.8,1.4-3.1,0.9
	c-1.3-0.5-1.6-1.5-1.7-2.7c-0.1-2.1,0.4-4.1,1.1-6.1c0.2-0.7,0.6-1.3,0.5-2.1c-1.2,0.2-1.8,0.9-2.2,2c-0.7,2.1-1.6,4.1-2.9,5.8
	c-1,1.4-2.2,2.5-3.9,3c-2.9,0.8-5.2-0.5-6.3-3.5c-0.5,0.6-1,1.2-1.5,1.8c-0.8,0.8-1.6,1.9-2.8,1.6c-1.4-0.3-1.6-1.6-2-2.7
	c-0.3-0.9-0.5-1.9-0.9-3.1c-0.7,1.7-1,3.2-1.2,4.7c0,0.4,0.4,1.1-0.4,1.3c-0.7,0.1-1.1-0.4-1.4-1c-0.3-0.5-0.2-1.1-0.3-1.8
	c-1.3,1.4-2.3,3-4.4,2.6c-1.1-0.2-1.5-1.1-1.5-2.1c-0.6,0.2-0.7,0.8-1,1.1c-0.9,1-2,1.4-3.4,1c-1.3-0.4-1.5-1.5-1.5-2.6
	c0.1-3.3,0.6-6.5,3.2-9c2.6-1.6,5.3-1.5,6.8,0.7c-2.6-1.3-4.6-1.1-5.9,1.4c-0.7,2.1-1.3,4.3-1.2,6.5c0,0.6,0,1.3,0.6,1.5
	c0.7,0.2,0.9-0.6,1.2-1c1.3-2.1,2.5-4.3,3.1-6.7c0.2-0.8,1.8-1.5,2.8-1.2c1.1,0.3,0.6,1.1,0.4,1.8c-0.6,2.4-1.6,4.7-1.6,7.3
	c1.5-1.4,2.5-3.1,3.1-5.1c0.3-1,0.5-2,0.7-3c0.4-2.9,1.3-5.6,1.7-8.5c0.2-1.2,0.5-2.4,0.5-3.6c0.1-1.3,1.5-0.9,2.4-0.9
	c0.9,0,1.4,0.5,1.1,1.5c-0.4,1.7-0.8,3.4-1.2,5.1c-0.2,0.9-0.4,1.7-0.7,2.6c-0.1,0.4-0.2,0.9-0.3,1.3c-0.1,0.3-0.2,0.8,0.3,0.5
	c1.1-0.7,2.2-1.5,3.5-1.7c2.4-0.4,3.4,0.9,2.6,3.3c-0.8,2.5-2.7,3.5-5,3.8c-1.6,0.2-1.7,0.8-1.3,2.1c0.4,1.1,0.5,2.5,1.7,2.8
	c1.1,0.2,1.7-0.9,2.4-1.7c0.9-1,1.6-2.1,1.9-3.5c0.5-2.4,1.9-4.3,4.1-5.6c0.6-0.4,1.3-0.6,2.1-0.7c2.3-0.1,3.5,1.2,2.9,3.4
	c-0.5,2.1-1.7,3.8-3.8,4.7c-0.4,0.2-1,0.4-1.2-0.3c-0.2-0.7,0.5-0.5,0.8-0.7c2-0.8,3.4-2.7,3.2-4.7c0-0.5,0-1-0.6-1.2
	c-0.4-0.2-0.8,0-1.1,0.3c-2.5,2.2-3.8,4.9-3.6,8.3c0.1,1.5,1.6,2.3,3.3,1.6c2.2-0.9,3.2-2.8,4.1-4.8c0.3-0.6,0.4-1.2,0.6-1.8
	c0.5-1.1,0.8-2-0.4-3.1c-0.9-0.9-0.8-2.3-0.3-3.6c0.4-1.1,1.3-1.5,2.4-1.2c1.1,0.3,1.1,1.3,1,2.1c-0.1,0.8-0.4,1.5-0.5,2.3
	c1.9-0.6,2.9-3.7,5.6-1.9c0.9,1,0.4,2,0.1,3c-0.8,2.2-1.8,4.3-2.1,6.7c-0.1,0.5-0.3,1-0.1,1.5c0.4,0.3,0.6,0,0.8-0.3
	c1.4-2.1,2.6-4.4,3.5-6.8c0.4-1.1,0.6-2.1-1.1-2.5c-0.8-0.2-0.5-0.7,0-1.1c0.4-0.4,1.6-0.2,2.1-0.1c0.7,0.1,1.6,0.4,2.1,1
	c0.7,0.8,0.4,2.3,0.3,3.2c-0.2,1.9-0.9,3.6-1.3,5.5c-0.1,0.5-0.5,1-0.1,1.9c2-3.1,4.3-5.8,5.1-9.3c0.1-0.3,0.2-0.7,0.1-0.9
	c-0.5-1.1,0-1.4,0.9-1.4c0.9,0,1.8,0.2,1.8,1.4c0,2.5-0.8,4.8-1.3,7.2c-0.1,0.6-0.7,1.5-0.1,1.7c0.8,0.4,1.2-0.6,1.6-1.1
	c1.6-2.2,2.8-4.6,3.7-7.2c0.1-0.4,0.1-1.2,0.7-1C181.2,63,181,63.7,180.8,64.2z M142.9,63.4c-1.4-0.8-3.2,1.1-3.9,2.1
	c-0.4,0.6-0.7,1.2-0.9,1.8c-0.2,0.8,0,0.9,0.7,0.8c1.5-0.2,2.9-0.7,4-1.9C143.4,65.5,144,64,142.9,63.4z M106.7,39.7
	c0.2-1.6,0.6-3.3,1-4.8c0-0.1,0-0.1-0.1-0.1c-1.2,2.1-1.6,4.3-1.1,6.6C106.6,40.8,106.7,40.2,106.7,39.7z M105.4,24.1L105.4,24.1
	C105.5,24.1,105.5,24.1,105.4,24.1C105.4,24.1,105.4,24.1,105.4,24.1z M105.4,34.8c-1.3,2.1-1.8,4.4-1.3,6.9
	C104.3,39.3,104.8,37,105.4,34.8z M101.5,27.4C101.5,27.4,101.5,27.4,101.5,27.4C101.5,27.4,101.5,27.4,101.5,27.4
	C101.5,27.4,101.5,27.4,101.5,27.4z M100.8,41.8c0.5-2.3,0.3-4.5-0.2-6.7C100.3,37.3,100.3,39.5,100.8,41.8z M97.2,38.2
	c0.2,1.2,0.4,2.3,0.5,3.5c0.5-2.5,0-4.7-1.3-6.9C96.7,35.9,97,37.1,97.2,38.2z M94.9,41.4c0.5-2.5,0-4.7-1.3-6.9
	C94.2,36.7,94.7,39,94.9,41.4z M84.9,53.5c-0.6-0.2-1.2,0.2-1.6,0.7c-0.4,0.5-0.6,1.1-0.6,1.9c-0.2,0.9,0.2,1.2,1.3,1
	c1.5-0.2,0.8-1.5,1.2-2.2C85.3,54.6,85.7,53.8,84.9,53.5z M83.6,58c-0.7,0.2-0.2,0.6-0.1,0.9c0,0,0,0.1,0,0.1c0.8,1,0.7-0.1,0.9-0.4
	C84.7,57.8,84,57.9,83.6,58z M105.4,24.1L105.4,24.1C105.5,24.1,105.5,24.1,105.4,24.1C105.4,24.1,105.4,24.1,105.4,24.1z
	 M101.5,27.4C101.5,27.4,101.5,27.4,101.5,27.4C101.5,27.4,101.5,27.4,101.5,27.4C101.5,27.4,101.5,27.4,101.5,27.4z M83.6,58
	c-0.7,0.2-0.2,0.6-0.1,0.9c0,0,0,0.1,0,0.1c0.8,1,0.7-0.1,0.9-0.4C84.7,57.8,84,57.9,83.6,58z M84.9,53.5c-0.6-0.2-1.2,0.2-1.6,0.7
	c-0.4,0.5-0.6,1.1-0.6,1.9c-0.2,0.9,0.2,1.2,1.3,1c1.5-0.2,0.8-1.5,1.2-2.2C85.3,54.6,85.7,53.8,84.9,53.5z M93.6,34.5
	c0.6,2.3,1.1,4.5,1.3,6.9C95.4,38.9,94.9,36.6,93.6,34.5z M96.4,34.8c0.3,1.1,0.6,2.3,0.8,3.4c0.2,1.2,0.4,2.3,0.5,3.5
	C98.2,39.2,97.7,36.9,96.4,34.8z M100.6,35c-0.3,2.3-0.4,4.5,0.2,6.7C101.3,39.5,101.1,37.3,100.6,35z M104.1,41.7
	c0.2-2.3,0.6-4.6,1.3-6.9C104.1,36.9,103.6,39.2,104.1,41.7z M107.6,34.7c-1.2,2.1-1.6,4.3-1.1,6.6c0.1-0.6,0.1-1.1,0.2-1.7
	c0.2-1.6,0.6-3.3,1-4.8C107.7,34.8,107.8,34.7,107.6,34.7z M107.6,34.7c-1.2,2.1-1.6,4.3-1.1,6.6c0.1-0.6,0.1-1.1,0.2-1.7
	c0.2-1.6,0.6-3.3,1-4.8C107.7,34.8,107.8,34.7,107.6,34.7z M105.4,24.1L105.4,24.1C105.5,24.1,105.5,24.1,105.4,24.1
	C105.4,24.1,105.4,24.1,105.4,24.1z M104.1,41.7c0.2-2.3,0.6-4.6,1.3-6.9C104.1,36.9,103.6,39.2,104.1,41.7z M101.5,27.4
	C101.5,27.4,101.5,27.4,101.5,27.4C101.5,27.4,101.5,27.4,101.5,27.4C101.5,27.4,101.5,27.4,101.5,27.4z M100.6,35
	c-0.3,2.3-0.4,4.5,0.2,6.7C101.3,39.5,101.1,37.3,100.6,35z M96.4,34.8c0.3,1.1,0.6,2.3,0.8,3.4c0.2,1.2,0.4,2.3,0.5,3.5
	C98.2,39.2,97.7,36.9,96.4,34.8z M93.6,34.5c0.6,2.3,1.1,4.5,1.3,6.9C95.4,38.9,94.9,36.6,93.6,34.5z M84.9,53.5
	c-0.6-0.2-1.2,0.2-1.6,0.7c-0.4,0.5-0.6,1.1-0.6,1.9c-0.2,0.9,0.2,1.2,1.3,1c1.5-0.2,0.8-1.5,1.2-2.2C85.3,54.6,85.7,53.8,84.9,53.5
	z M83.6,58c-0.7,0.2-0.2,0.6-0.1,0.9c0,0,0,0.1,0,0.1c0.8,1,0.7-0.1,0.9-0.4C84.7,57.8,84,57.9,83.6,58z M105.4,24.1L105.4,24.1
	C105.5,24.1,105.5,24.1,105.4,24.1C105.4,24.1,105.4,24.1,105.4,24.1z M101.5,27.4C101.5,27.4,101.5,27.4,101.5,27.4
	C101.5,27.4,101.5,27.4,101.5,27.4C101.5,27.4,101.5,27.4,101.5,27.4z M83.6,58c-0.7,0.2-0.2,0.6-0.1,0.9c0,0,0,0.1,0,0.1
	c0.8,1,0.7-0.1,0.9-0.4C84.7,57.8,84,57.9,83.6,58z M84.9,53.5c-0.6-0.2-1.2,0.2-1.6,0.7c-0.4,0.5-0.6,1.1-0.6,1.9
	c-0.2,0.9,0.2,1.2,1.3,1c1.5-0.2,0.8-1.5,1.2-2.2C85.3,54.6,85.7,53.8,84.9,53.5z M93.6,34.5c0.6,2.3,1.1,4.5,1.3,6.9
	C95.4,38.9,94.9,36.6,93.6,34.5z M96.4,34.8c0.3,1.1,0.6,2.3,0.8,3.4c0.2,1.2,0.4,2.3,0.5,3.5C98.2,39.2,97.7,36.9,96.4,34.8z
	 M100.6,35c-0.3,2.3-0.4,4.5,0.2,6.7C101.3,39.5,101.1,37.3,100.6,35z M104.1,41.7c0.2-2.3,0.6-4.6,1.3-6.9
	C104.1,36.9,103.6,39.2,104.1,41.7z M107.6,34.7c-1.2,2.1-1.6,4.3-1.1,6.6c0.1-0.6,0.1-1.1,0.2-1.7c0.2-1.6,0.6-3.3,1-4.8
	C107.7,34.8,107.8,34.7,107.6,34.7z M107.6,34.7c-1.2,2.1-1.6,4.3-1.1,6.6c0.1-0.6,0.1-1.1,0.2-1.7c0.2-1.6,0.6-3.3,1-4.8
	C107.7,34.8,107.8,34.7,107.6,34.7z M105.4,24.1L105.4,24.1C105.5,24.1,105.5,24.1,105.4,24.1C105.4,24.1,105.4,24.1,105.4,24.1z
	 M104.1,41.7c0.2-2.3,0.6-4.6,1.3-6.9C104.1,36.9,103.6,39.2,104.1,41.7z M101.5,27.4C101.5,27.4,101.5,27.4,101.5,27.4
	C101.5,27.4,101.5,27.4,101.5,27.4C101.5,27.4,101.5,27.4,101.5,27.4z M100.6,35c-0.3,2.3-0.4,4.5,0.2,6.7
	C101.3,39.5,101.1,37.3,100.6,35z M96.4,34.8c0.3,1.1,0.6,2.3,0.8,3.4c0.2,1.2,0.4,2.3,0.5,3.5C98.2,39.2,97.7,36.9,96.4,34.8z
	 M93.6,34.5c0.6,2.3,1.1,4.5,1.3,6.9C95.4,38.9,94.9,36.6,93.6,34.5z M84.9,53.5c-0.6-0.2-1.2,0.2-1.6,0.7c-0.4,0.5-0.6,1.1-0.6,1.9
	c-0.2,0.9,0.2,1.2,1.3,1c1.5-0.2,0.8-1.5,1.2-2.2C85.3,54.6,85.7,53.8,84.9,53.5z M83.6,58c-0.7,0.2-0.2,0.6-0.1,0.9
	c0,0,0,0.1,0,0.1c0.8,1,0.7-0.1,0.9-0.4C84.7,57.8,84,57.9,83.6,58z M105.4,24.1L105.4,24.1C105.5,24.1,105.5,24.1,105.4,24.1
	C105.4,24.1,105.4,24.1,105.4,24.1z M101.5,27.4C101.5,27.4,101.5,27.4,101.5,27.4C101.5,27.4,101.5,27.4,101.5,27.4
	C101.5,27.4,101.5,27.4,101.5,27.4z M105.4,24.1L105.4,24.1C105.5,24.1,105.5,24.1,105.4,24.1C105.4,24.1,105.4,24.1,105.4,24.1z
	 M101.5,27.4C101.5,27.4,101.5,27.4,101.5,27.4C101.5,27.4,101.5,27.4,101.5,27.4C101.5,27.4,101.5,27.4,101.5,27.4z M105.4,24.1
	L105.4,24.1C105.5,24.1,105.5,24.1,105.4,24.1C105.4,24.1,105.4,24.1,105.4,24.1z M105.4,24.1L105.4,24.1
	C105.5,24.1,105.5,24.1,105.4,24.1C105.4,24.1,105.4,24.1,105.4,24.1z"/>
</svg>
